<?xml version="1.0" ?><!DOCTYPE svg  PUBLIC '-//W3C//DTD SVG 1.1//EN'  'http://www.w3.org/Graphics/SVG/1.1/DTD/svg11.dtd'><svg xmlns="http://www.w3.org/2000/svg" xmlns:xlink="http://www.w3.org/1999/xlink" xmlns:serif="http://www.serif.com/" width="100%" height="100%" viewBox="0 0 64 64" version="1.1" xml:space="preserve" style="fill-rule:evenodd;clip-rule:evenodd;stroke-linejoin:round;stroke-miterlimit:2;"><g transform="matrix(-0.878979,-0.878979,0.906957,-0.906957,13.5631,106.691)"><path d="M21.353,51.209C28.291,49.08 35.709,49.08 42.647,51.209L44.436,58.367C44.611,59.067 45.257,59.559 46,59.559L58,59.559C58.776,59.559 59.441,59.023 59.582,58.284C59.582,58.284 60.314,54.45 60.898,49.783C61.396,45.798 58.894,42.058 55.033,40.955L55.031,40.955C39.978,36.654 24.022,36.654 8.969,40.955L8.967,40.955C5.106,42.058 2.604,45.798 3.102,49.783C3.686,54.45 4.418,58.284 4.418,58.284C4.559,59.023 5.224,59.559 6,59.559L18,59.559C18.743,59.559 19.389,59.067 19.564,58.367L21.353,51.209Z"/></g><g transform="matrix(0.666667,0,0,0.571429,10.6667,16.8571)"><ellipse cx="38" cy="19.5" rx="3" ry="3.5"/></g><g transform="matrix(0.722749,0,0,0.722749,7.09005,10.654)"><path d="M39.858,18.462C38.396,18.388 37.233,17.178 37.233,15.698C37.233,14.171 38.473,12.931 40,12.931C46.109,12.931 51.069,17.891 51.069,24C51.069,25.527 49.829,26.767 48.302,26.767C46.822,26.767 45.612,25.604 45.538,24.142L45.527,23.715C45.383,20.887 43.113,18.617 40.285,18.473L39.858,18.462Z"/></g><g transform="matrix(1,0,0,1,-4,4)"><path d="M40,14C45.519,14 50,18.481 50,24C50,25.104 50.896,26 52,26C53.104,26 54,25.104 54,24C54,16.273 47.727,10 40,10C38.896,10 38,10.896 38,12C38,13.104 38.896,14 40,14Z"/></g><g transform="matrix(1,0,0,1,-4,4)"><path d="M40,7.71C48.991,7.71 56.29,15.009 56.29,24C56.29,25.104 57.187,26 58.29,26C59.394,26 60.29,25.104 60.29,24C60.29,12.801 51.199,3.71 40,3.71C38.896,3.71 38,4.606 38,5.71C38,6.813 38.896,7.71 40,7.71Z"/></g></svg>